<svg xmlns="http://www.w3.org/2000/svg" xmlns:xlink="http://www.w3.org/1999/xlink" width="500" zoomAndPan="magnify" viewBox="0 0 375 374.999991" height="500" preserveAspectRatio="xMidYMid meet" version="1.0"><defs><g/><clipPath id="53a182d1ae"><path d="M 89.082031 0 L 285.582031 0 L 285.582031 248 L 89.082031 248 Z M 89.082031 0 " clip-rule="nonzero"/></clipPath></defs><path fill="#010101" d="M 181.441406 152.972656 C 181.441406 153.300781 181.410156 153.625 181.34375 153.945312 C 181.28125 154.265625 181.1875 154.578125 181.0625 154.878906 C 180.9375 155.183594 180.78125 155.46875 180.601562 155.742188 C 180.417969 156.015625 180.210938 156.265625 179.980469 156.5 C 179.75 156.730469 179.496094 156.9375 179.222656 157.117188 C 178.953125 157.300781 178.664062 157.453125 178.363281 157.578125 C 178.058594 157.703125 177.746094 157.800781 177.425781 157.863281 C 177.105469 157.925781 176.78125 157.957031 176.453125 157.957031 C 176.125 157.957031 175.800781 157.925781 175.480469 157.863281 C 175.160156 157.800781 174.847656 157.703125 174.546875 157.578125 C 174.242188 157.453125 173.957031 157.300781 173.683594 157.117188 C 173.410156 156.9375 173.160156 156.730469 172.925781 156.5 C 172.695312 156.265625 172.488281 156.015625 172.308594 155.742188 C 172.125 155.46875 171.972656 155.183594 171.847656 154.878906 C 171.722656 154.578125 171.625 154.265625 171.5625 153.945312 C 171.5 153.625 171.464844 153.300781 171.464844 152.972656 C 171.464844 152.644531 171.5 152.320312 171.5625 152 C 171.625 151.675781 171.722656 151.367188 171.847656 151.0625 C 171.972656 150.761719 172.125 150.472656 172.308594 150.199219 C 172.488281 149.929688 172.695312 149.675781 172.925781 149.445312 C 173.160156 149.214844 173.410156 149.007812 173.683594 148.824219 C 173.957031 148.644531 174.242188 148.488281 174.546875 148.363281 C 174.847656 148.238281 175.160156 148.144531 175.480469 148.082031 C 175.800781 148.015625 176.125 147.984375 176.453125 147.984375 C 176.78125 147.984375 177.105469 148.015625 177.425781 148.082031 C 177.746094 148.144531 178.058594 148.238281 178.363281 148.363281 C 178.664062 148.488281 178.953125 148.644531 179.222656 148.824219 C 179.496094 149.007812 179.75 149.214844 179.980469 149.445312 C 180.210938 149.675781 180.417969 149.929688 180.601562 150.199219 C 180.78125 150.472656 180.9375 150.761719 181.0625 151.0625 C 181.1875 151.367188 181.28125 151.675781 181.34375 152 C 181.410156 152.320312 181.441406 152.644531 181.441406 152.972656 Z M 181.441406 152.972656 " fill-opacity="1" fill-rule="nonzero"/><path fill="#010101" d="M 203.507812 152.972656 C 203.507812 153.300781 203.476562 153.625 203.414062 153.945312 C 203.351562 154.265625 203.253906 154.578125 203.128906 154.878906 C 203.003906 155.183594 202.851562 155.46875 202.667969 155.742188 C 202.488281 156.015625 202.28125 156.265625 202.050781 156.5 C 201.816406 156.730469 201.566406 156.9375 201.292969 157.117188 C 201.019531 157.300781 200.734375 157.453125 200.429688 157.578125 C 200.128906 157.703125 199.816406 157.800781 199.496094 157.863281 C 199.175781 157.925781 198.851562 157.957031 198.523438 157.957031 C 198.195312 157.957031 197.871094 157.925781 197.550781 157.863281 C 197.226562 157.800781 196.917969 157.703125 196.613281 157.578125 C 196.3125 157.453125 196.023438 157.300781 195.75 157.117188 C 195.480469 156.9375 195.226562 156.730469 194.996094 156.5 C 194.765625 156.265625 194.558594 156.015625 194.375 155.742188 C 194.195312 155.46875 194.039062 155.183594 193.914062 154.878906 C 193.789062 154.578125 193.695312 154.265625 193.632812 153.945312 C 193.566406 153.625 193.535156 153.300781 193.535156 152.972656 C 193.535156 152.644531 193.566406 152.320312 193.632812 152 C 193.695312 151.675781 193.789062 151.367188 193.914062 151.0625 C 194.039062 150.761719 194.195312 150.472656 194.375 150.199219 C 194.558594 149.929688 194.765625 149.675781 194.996094 149.445312 C 195.226562 149.214844 195.480469 149.007812 195.75 148.824219 C 196.023438 148.644531 196.3125 148.488281 196.613281 148.363281 C 196.917969 148.238281 197.226562 148.144531 197.550781 148.082031 C 197.871094 148.015625 198.195312 147.984375 198.523438 147.984375 C 198.851562 147.984375 199.175781 148.015625 199.496094 148.082031 C 199.816406 148.144531 200.128906 148.238281 200.429688 148.363281 C 200.734375 148.488281 201.019531 148.644531 201.292969 148.824219 C 201.566406 149.007812 201.816406 149.214844 202.050781 149.445312 C 202.28125 149.675781 202.488281 149.929688 202.667969 150.199219 C 202.851562 150.472656 203.003906 150.761719 203.128906 151.0625 C 203.253906 151.367188 203.351562 151.675781 203.414062 152 C 203.476562 152.320312 203.507812 152.644531 203.507812 152.972656 Z M 203.507812 152.972656 " fill-opacity="1" fill-rule="nonzero"/><path fill="#ff914d" d="M 211.027344 225.976562 L 199.996094 224.542969 C 199.027344 224.414062 198.3125 223.597656 198.3125 222.625 L 198.3125 221.695312 C 198.3125 220.902344 198.757812 220.226562 199.484375 219.917969 L 217.21875 212.359375 C 217.75 212.132812 218.296875 212.144531 218.820312 212.398438 C 219.339844 212.65625 219.6875 213.074219 219.84375 213.632812 L 223.175781 225.855469 C 223.269531 226.203125 223.269531 226.519531 223.175781 226.871094 L 219.84375 239.09375 C 219.6875 239.652344 219.339844 240.070312 218.820312 240.324219 C 218.296875 240.582031 217.75 240.59375 217.21875 240.363281 L 199.484375 232.800781 C 198.757812 232.492188 198.3125 231.816406 198.3125 231.023438 L 198.3125 230.09375 C 198.3125 229.117188 199.027344 228.304688 199.996094 228.175781 L 211.027344 226.742188 C 211.222656 226.714844 211.363281 226.554688 211.363281 226.359375 C 211.363281 226.164062 211.222656 226.003906 211.027344 225.976562 Z M 211.027344 225.976562 " fill-opacity="1" fill-rule="evenodd"/><path fill="#ff914d" d="M 163.957031 225.976562 L 174.980469 224.542969 C 175.949219 224.414062 176.664062 223.597656 176.664062 222.625 L 176.664062 221.695312 C 176.664062 220.902344 176.21875 220.226562 175.492188 219.917969 L 157.757812 212.359375 C 157.226562 212.132812 156.679688 212.144531 156.15625 212.398438 C 155.636719 212.65625 155.285156 213.074219 155.132812 213.632812 L 151.800781 225.855469 C 151.707031 226.203125 151.707031 226.519531 151.800781 226.871094 L 155.132812 239.09375 C 155.285156 239.652344 155.636719 240.070312 156.15625 240.324219 C 156.671875 240.582031 157.226562 240.585938 157.757812 240.363281 L 175.492188 232.800781 C 176.21875 232.492188 176.664062 231.816406 176.664062 231.023438 L 176.664062 230.09375 C 176.664062 229.117188 175.949219 228.304688 174.980469 228.175781 L 163.957031 226.742188 C 163.761719 226.714844 163.617188 226.554688 163.617188 226.359375 C 163.617188 226.164062 163.761719 226.003906 163.957031 225.976562 Z M 163.957031 225.976562 " fill-opacity="1" fill-rule="evenodd"/><path fill="#ff914d" d="M 182.464844 219.769531 L 182.464844 232.933594 C 182.464844 233.996094 183.332031 234.867188 184.394531 234.867188 L 190.574219 234.867188 C 191.636719 234.867188 192.503906 233.996094 192.503906 232.933594 L 192.503906 219.769531 C 192.503906 218.707031 191.636719 217.839844 190.574219 217.839844 L 184.394531 217.839844 C 183.332031 217.839844 182.464844 218.707031 182.464844 219.769531 Z M 182.464844 219.769531 " fill-opacity="1" fill-rule="evenodd"/><path fill="#010101" d="M 187.398438 191.253906 C 176.15625 191.253906 167.675781 185.195312 162.542969 176.097656 C 160.253906 172.046875 167.328125 170.140625 169.144531 173.191406 C 173.035156 179.722656 179.507812 183.929688 187.398438 183.929688 C 195.285156 183.929688 201.753906 179.722656 205.648438 173.191406 C 207.46875 170.140625 214.539062 172.046875 212.253906 176.097656 C 207.117188 185.191406 198.636719 191.253906 187.398438 191.253906 Z M 187.398438 191.253906 " fill-opacity="1" fill-rule="evenodd"/><path fill="#010101" d="M 139.371094 112.777344 C 139.558594 112.992188 139.847656 112.980469 139.957031 113.402344 L 160.746094 124.5625 C 170.566406 128.683594 176.980469 119.386719 179.335938 110.226562 C 172.289062 108.933594 164.332031 106.40625 157.320312 104.628906 C 148.542969 102.40625 140.761719 98.058594 139.375 112.777344 Z M 139.371094 112.777344 " fill-opacity="1" fill-rule="evenodd"/><path fill="#010101" d="M 235.800781 112.777344 C 235.613281 112.992188 235.324219 112.980469 235.214844 113.402344 L 214.425781 124.5625 C 204.605469 128.683594 198.191406 119.386719 195.835938 110.226562 C 202.882812 108.933594 210.839844 106.40625 217.851562 104.628906 C 226.628906 102.40625 234.410156 98.058594 235.796875 112.777344 Z M 235.800781 112.777344 " fill-opacity="1" fill-rule="evenodd"/><g clip-path="url(#53a182d1ae)"><path fill="#010101" d="M 240.035156 146.121094 L 234.246094 148.5625 C 230.539062 150.132812 228 153.199219 227.167969 156.988281 C 224.136719 155.960938 220.625 154.984375 216.628906 154.070312 C 220.800781 158.085938 223.109375 160.925781 224.757812 165.1875 L 218.429688 164.59375 C 220.078125 166.566406 222.238281 169.050781 224.480469 172.246094 C 212.691406 207.171875 162.304688 207.226562 150.386719 172.421875 C 152.667969 169.136719 154.875 166.601562 156.550781 164.59375 L 150.226562 165.1875 C 151.875 160.925781 154.175781 158.078125 158.355469 154.070312 C 154.285156 154.996094 150.710938 155.992188 147.648438 157.042969 C 146.832031 153.226562 144.28125 150.136719 140.554688 148.554688 L 134.765625 146.113281 C 125.476562 142.183594 122.773438 130.4375 125.25 118.15625 C 125.984375 114.890625 127.074219 111.445312 128.527344 107.832031 C 136.152344 90.460938 153.800781 76.234375 177.261719 87.09375 C 183.925781 90.179688 190.890625 90.179688 197.554688 87.09375 C 221.015625 76.234375 238.660156 90.460938 246.289062 107.832031 C 248.0625 112.078125 249.15625 115.515625 249.566406 118.15625 C 252.042969 130.445312 249.328125 142.191406 240.046875 146.113281 Z M 182.464844 219.769531 L 182.464844 232.933594 C 182.464844 233.996094 183.332031 234.867188 184.394531 234.867188 L 190.582031 234.867188 C 191.644531 234.867188 192.511719 233.996094 192.511719 232.933594 L 192.511719 219.769531 C 192.511719 218.707031 191.644531 217.839844 190.582031 217.839844 L 184.394531 217.839844 C 183.332031 217.839844 182.464844 218.707031 182.464844 219.769531 Z M 163.957031 225.96875 L 174.988281 224.535156 C 175.957031 224.414062 176.667969 223.59375 176.667969 222.617188 L 176.667969 221.6875 C 176.667969 220.902344 176.226562 220.222656 175.5 219.910156 L 157.765625 212.347656 C 157.230469 212.117188 156.6875 212.132812 156.160156 212.386719 C 155.644531 212.636719 155.292969 213.058594 155.140625 213.617188 L 151.808594 225.839844 C 151.714844 226.191406 151.714844 226.507812 151.808594 226.855469 L 155.140625 239.078125 C 155.292969 239.636719 155.644531 240.0625 156.160156 240.3125 C 156.679688 240.558594 157.230469 240.574219 157.765625 240.351562 L 175.5 232.785156 C 176.226562 232.476562 176.667969 231.804688 176.667969 231.007812 L 176.667969 230.082031 C 176.667969 229.105469 175.957031 228.289062 174.988281 228.164062 L 163.957031 226.730469 C 163.761719 226.703125 163.617188 226.539062 163.617188 226.34375 C 163.617188 226.148438 163.761719 225.988281 163.957031 225.960938 Z M 211.027344 225.96875 L 199.996094 224.535156 C 199.027344 224.414062 198.3125 223.59375 198.3125 222.617188 L 198.3125 221.6875 C 198.3125 220.894531 198.757812 220.222656 199.492188 219.910156 L 217.226562 212.347656 C 217.757812 212.117188 218.304688 212.132812 218.828125 212.386719 C 219.347656 212.636719 219.695312 213.058594 219.851562 213.617188 L 223.183594 225.839844 C 223.277344 226.191406 223.277344 226.507812 223.183594 226.855469 L 219.851562 239.078125 C 219.695312 239.636719 219.347656 240.054688 218.828125 240.3125 C 218.304688 240.558594 217.757812 240.574219 217.226562 240.351562 L 199.492188 232.785156 C 198.765625 232.476562 198.3125 231.804688 198.3125 231.007812 L 198.3125 230.082031 C 198.3125 229.105469 199.027344 228.289062 199.996094 228.164062 L 211.027344 226.730469 C 211.222656 226.703125 211.363281 226.539062 211.363281 226.34375 C 211.363281 226.148438 211.222656 225.988281 211.027344 225.960938 Z M 224.273438 207.816406 L 229.050781 225.335938 C 229.238281 226.027344 229.238281 226.675781 229.050781 227.367188 L 224.273438 244.886719 C 223.96875 246.003906 223.269531 246.847656 222.226562 247.351562 C 221.183594 247.855469 220.09375 247.882812 219.03125 247.429688 L 199.789062 239.226562 C 199.484375 239.097656 199.175781 239.097656 198.871094 239.234375 C 198.570312 239.367188 198.359375 239.589844 198.246094 239.898438 C 198.085938 240.34375 197.652344 240.667969 197.15625 240.667969 L 177.828125 240.667969 C 177.328125 240.667969 176.898438 240.34375 176.738281 239.898438 C 176.621094 239.589844 176.414062 239.363281 176.109375 239.234375 C 175.808594 239.097656 175.5 239.097656 175.195312 239.226562 L 155.953125 247.429688 C 154.890625 247.882812 153.792969 247.855469 152.757812 247.359375 C 151.714844 246.851562 151.011719 246.011719 150.710938 244.894531 L 145.933594 227.375 C 145.742188 226.683594 145.742188 226.035156 145.933594 225.34375 L 150.480469 208.652344 C 141.171875 202.65625 134.03125 193.992188 130.992188 182.664062 C 123.210938 171.925781 114.589844 164.566406 105.121094 160.609375 C 103.988281 154.53125 105.121094 147.601562 108.511719 139.828125 C 106.902344 133.324219 105.773438 127.476562 105.121094 122.289062 C 94.640625 118.761719 89.503906 106.84375 89.101562 95.933594 C 89.296875 95.28125 89.476562 94.621094 89.644531 93.96875 C 89.457031 93.933594 89.269531 93.898438 89.082031 93.859375 C 89.34375 79.691406 97.78125 68.324219 113.019531 81.320312 C 113.652344 80.242188 114.300781 79.1875 114.957031 78.144531 C 119.40625 58.128906 130.96875 42.878906 149.652344 32.390625 C 151.058594 36.347656 151.472656 40.3125 150.886719 44.289062 C 150.46875 47.128906 149.539062 49.976562 148.113281 52.824219 C 156.605469 48.804688 162.695312 43.921875 166.378906 38.164062 C 172.773438 28.171875 171.902344 15.550781 163.765625 0.308594 C 218.847656 21.230469 175.875 66.90625 207.675781 37.964844 C 217.039062 28.925781 223.585938 18.460938 221.566406 9.917969 C 249.976562 28.273438 269.164062 56.214844 261.765625 81.3125 C 289.253906 57.867188 295.121094 113.121094 269.683594 122.214844 C 269.03125 127.421875 267.898438 133.292969 266.277344 139.820312 C 269.667969 147.59375 270.800781 154.527344 269.667969 160.605469 C 260.199219 164.5625 251.570312 171.917969 243.796875 182.660156 C 240.769531 193.917969 233.695312 202.546875 224.46875 208.535156 L 224.273438 207.808594 Z M 224.273438 207.816406 " fill-opacity="1" fill-rule="evenodd"/></g><g fill="#000000" fill-opacity="1"><g transform="translate(54.6932, 319.611097)"><g><path d="M 58.296875 0 L 29.359375 0 L 29.359375 -9.453125 L 36.21875 -9.453125 L 34.703125 -14.359375 L 19.90625 -14.359375 L 18.390625 -9.453125 L 24.015625 -9.453125 L 24.015625 0 L 1.078125 0 L 1.078125 -9.453125 L 5.984375 -9.453125 L 15.734375 -41.125 L 12.765625 -41.125 L 12.765625 -50.421875 L 40.46875 -50.421875 L 53.234375 -9.453125 L 58.296875 -9.453125 Z M 22.578125 -23.015625 L 32.03125 -23.015625 L 27.265625 -38.59375 Z M 22.578125 -23.015625 "/></g></g></g><g fill="#000000" fill-opacity="1"><g transform="translate(114.057926, 319.611097)"><g><path d="M 57.0625 -41.125 L 52.296875 -41.125 L 52.296875 0 L 36.796875 0 L 18.390625 -27.484375 L 18.390625 -9.3125 L 23.953125 -9.3125 L 23.953125 0 L 1.796875 0 L 1.796875 -9.3125 L 6.0625 -9.3125 L 6.0625 -41.125 L 1.875 -41.125 L 1.875 -50.421875 L 22.578125 -50.421875 L 40.25 -23.953125 L 40.25 -41.125 L 35.34375 -41.125 L 35.34375 -50.421875 L 57.0625 -50.421875 Z M 57.0625 -41.125 "/></g></g></g><g fill="#000000" fill-opacity="1"><g transform="translate(172.917734, 319.611097)"><g><path d="M 1.796875 -50.421875 L 25.75 -50.421875 L 25.75 -40.90625 L 21.28125 -40.90625 L 21.28125 -9.59375 L 25.75 -9.59375 L 25.75 0 L 1.796875 0 L 1.796875 -9.59375 L 6.34375 -9.59375 L 6.34375 -40.90625 L 1.796875 -40.90625 Z M 1.796875 -50.421875 "/></g></g></g><g fill="#000000" fill-opacity="1"><g transform="translate(200.472194, 319.611097)"><g><path d="M 52.15625 -37.734375 L 51.875 -37.734375 C 51.675781 -36.671875 51.441406 -35.488281 51.171875 -34.1875 C 50.910156 -32.894531 50.660156 -31.691406 50.421875 -30.578125 C 50.179688 -29.472656 49.96875 -28.632812 49.78125 -28.0625 L 42.203125 0 L 27.125 0 L 19.046875 -28.78125 C 18.847656 -29.40625 18.566406 -30.609375 18.203125 -32.390625 C 17.847656 -34.171875 17.625 -35.953125 17.53125 -37.734375 L 17.234375 -37.734375 L 17.234375 -9.3125 L 21.359375 -9.3125 L 21.359375 0 L 1.796875 0 L 1.796875 -9.3125 L 5.703125 -9.3125 L 5.703125 -41.125 L 1.875 -41.125 L 1.875 -50.421875 L 29.21875 -50.421875 L 36.5 -23.453125 L 43.421875 -50.421875 L 70.921875 -50.421875 L 70.921875 -41.125 L 66.953125 -41.125 L 66.953125 -9.375 L 70.921875 -9.375 L 70.921875 0 L 48.125 0 L 48.125 -9.375 L 52.15625 -9.375 Z M 52.15625 -37.734375 "/></g></g></g><g fill="#000000" fill-opacity="1"><g transform="translate(273.181367, 319.611097)"><g><path d="M 1.796875 -50.421875 L 45.296875 -50.421875 L 45.296875 -34.484375 L 32.828125 -34.484375 L 32.828125 -40.90625 L 21.28125 -40.90625 L 21.28125 -30.953125 L 34.984375 -30.953125 L 34.984375 -21.359375 L 21.28125 -21.359375 L 21.28125 -9.59375 L 32.828125 -9.59375 L 32.828125 -16.296875 L 45.296875 -16.296875 L 45.296875 0 L 1.796875 0 L 1.796875 -9.59375 L 6.34375 -9.59375 L 6.34375 -40.90625 L 1.796875 -40.90625 Z M 1.796875 -50.421875 "/></g></g></g><g fill="#ff914d" fill-opacity="1"><g transform="translate(100.713326, 362.539574)"><g><path d="M 26.828125 -28.46875 L 32.5625 -28.46875 L 32.5625 0 L 26.5 0 L 26.5 -18.796875 L 19.71875 -9.28125 L 14.859375 -9.28125 L 7.984375 -18.515625 L 7.984375 0 L 1.890625 0 L 1.890625 -28.46875 L 7.671875 -28.46875 L 17.3125 -15.34375 Z M 26.828125 -28.46875 "/></g></g></g><g fill="#ff914d" fill-opacity="1"><g transform="translate(135.366269, 362.539574)"><g><path d="M 15.34375 -28.875 C 17.269531 -28.875 19.085938 -28.484375 20.796875 -27.703125 C 22.515625 -26.929688 24.007812 -25.875 25.28125 -24.53125 C 26.550781 -23.195312 27.550781 -21.644531 28.28125 -19.875 C 29.019531 -18.113281 29.390625 -16.226562 29.390625 -14.21875 C 29.390625 -12.238281 29.019531 -10.347656 28.28125 -8.546875 C 27.550781 -6.753906 26.550781 -5.1875 25.28125 -3.84375 C 24.007812 -2.507812 22.515625 -1.445312 20.796875 -0.65625 C 19.085938 0.125 17.269531 0.515625 15.34375 0.515625 C 13.414062 0.515625 11.59375 0.125 9.875 -0.65625 C 8.164062 -1.445312 6.679688 -2.507812 5.421875 -3.84375 C 4.160156 -5.1875 3.160156 -6.753906 2.421875 -8.546875 C 1.691406 -10.347656 1.328125 -12.238281 1.328125 -14.21875 C 1.328125 -16.226562 1.691406 -18.113281 2.421875 -19.875 C 3.160156 -21.644531 4.160156 -23.195312 5.421875 -24.53125 C 6.679688 -25.875 8.164062 -26.929688 9.875 -27.703125 C 11.59375 -28.484375 13.414062 -28.875 15.34375 -28.875 Z M 15.34375 -5.546875 C 16.4375 -5.546875 17.460938 -5.769531 18.421875 -6.21875 C 19.390625 -6.675781 20.234375 -7.300781 20.953125 -8.09375 C 21.679688 -8.882812 22.253906 -9.800781 22.671875 -10.84375 C 23.085938 -11.882812 23.296875 -13.007812 23.296875 -14.21875 C 23.296875 -15.414062 23.085938 -16.539062 22.671875 -17.59375 C 22.253906 -18.65625 21.679688 -19.582031 20.953125 -20.375 C 20.234375 -21.164062 19.390625 -21.785156 18.421875 -22.234375 C 17.460938 -22.691406 16.4375 -22.921875 15.34375 -22.921875 C 14.238281 -22.921875 13.203125 -22.691406 12.234375 -22.234375 C 11.273438 -21.785156 10.4375 -21.164062 9.71875 -20.375 C 9 -19.582031 8.429688 -18.65625 8.015625 -17.59375 C 7.597656 -16.539062 7.390625 -15.414062 7.390625 -14.21875 C 7.390625 -13.007812 7.597656 -11.882812 8.015625 -10.84375 C 8.429688 -9.800781 9 -8.882812 9.71875 -8.09375 C 10.4375 -7.300781 11.273438 -6.675781 12.234375 -6.21875 C 13.203125 -5.769531 14.238281 -5.546875 15.34375 -5.546875 Z M 15.34375 -5.546875 "/></g></g></g><g fill="#ff914d" fill-opacity="1"><g transform="translate(166.284891, 362.539574)"><g><path d="M 21.359375 -28.46875 L 27.421875 -28.46875 L 27.421875 0 L 21.640625 0 L 7.953125 -18.59375 L 7.953125 0 L 1.890625 0 L 1.890625 -28.46875 L 7.59375 -28.46875 L 21.359375 -9.765625 Z M 21.359375 -28.46875 "/></g></g></g><g fill="#ff914d" fill-opacity="1"><g transform="translate(195.798127, 362.539574)"><g><path d="M 14.296875 -15.453125 L 28.03125 0 L 20.515625 0 L 10.4375 -11.609375 L 7.984375 -9.109375 L 7.984375 0 L 1.890625 0 L 1.890625 -28.46875 L 7.984375 -28.46875 L 7.984375 -16.953125 L 19.4375 -28.46875 L 27.21875 -28.46875 Z M 14.296875 -15.453125 "/></g></g></g><g fill="#ff914d" fill-opacity="1"><g transform="translate(224.58859, 362.539574)"><g><path d="M 1.921875 -28.46875 L 19.71875 -28.46875 L 19.71875 -22.921875 L 8.03125 -22.921875 L 8.03125 -17.796875 L 18.3125 -17.796875 L 18.3125 -12.25 L 8.03125 -12.25 L 8.03125 -5.5 L 19.71875 -5.5 L 19.71875 0 L 1.921875 0 Z M 1.921875 -28.46875 "/></g></g></g><g fill="#ff914d" fill-opacity="1"><g transform="translate(246.432419, 362.539574)"><g><path d="M 19.75 -28.46875 L 27.109375 -28.46875 L 16.953125 -13.328125 L 16.953125 0 L 10.875 0 L 10.875 -13.328125 L 0.71875 -28.46875 L 8.078125 -28.46875 L 13.9375 -19.71875 Z M 19.75 -28.46875 "/></g></g></g></svg>